<?xml version="1.0" encoding="UTF-8" standalone="no"?>
<!-- Created with Inkscape (http://www.inkscape.org/) -->

<svg
   width="297mm"
   height="210mm"
   viewBox="0 0 297 210"
   version="1.1"
   id="svg1"
   inkscape:version="1.4 (86a8ad7, 2024-10-11)"
   sodipodi:docname="parts.svg"
   xml:space="preserve"
   xmlns:inkscape="http://www.inkscape.org/namespaces/inkscape"
   xmlns:sodipodi="http://sodipodi.sourceforge.net/DTD/sodipodi-0.dtd"
   xmlns="http://www.w3.org/2000/svg"
   xmlns:svg="http://www.w3.org/2000/svg"><sodipodi:namedview
     id="namedview1"
     pagecolor="#505050"
     bordercolor="#eeeeee"
     borderopacity="1"
     inkscape:showpageshadow="0"
     inkscape:pageopacity="0"
     inkscape:pagecheckerboard="0"
     inkscape:deskcolor="#d1d1d1"
     inkscape:document-units="mm"
     inkscape:zoom="1.8408988"
     inkscape:cx="-60.568239"
     inkscape:cy="132.27234"
     inkscape:window-width="1080"
     inkscape:window-height="1849"
     inkscape:window-x="-8"
     inkscape:window-y="-8"
     inkscape:window-maximized="1"
     inkscape:current-layer="layer1" /><defs
     id="defs1" /><g
     inkscape:label="Layer 1"
     inkscape:groupmode="layer"
     id="layer1"><g
       style="opacity:1;stroke-width:13.5465"
       id="kaku"
       transform="matrix(0.01953188,0,0,0.01953129,13.183613,8.5593743)"
       inkscape:label="kaku"><path
         class="st0"
         d="m -791.90276,-560.16423 c -4.183,-4.724 -8.615,-9.83 -13.23,-15.197 -0.539,-0.654 -1.07,-1.26 -1.609,-1.922 -0.008,0.01 -0.016,0.02 -0.024,0.031 -0.037,-0.043 -0.07,-0.084 -0.107,-0.127 -4.947,7 -10.576,13.732 -16.912,20.068 -5.684,5.684 -11.725,10.715 -17.957,15.279 -0.68,0.478 -1.316,1.047 -2.006,1.51 0.008,0.008 0.016,0.014 0.024,0.019 -0.043,0.031 -0.084,0.07 -0.127,0.1 6.142,5.27 11.886,10.252 17.215,14.971 6.656,-4.49 13.029,-9.721 19.021,-15.711 5.991,-5.992 11.222,-12.365 15.712,-19.021 z"
         style="opacity:1;fill:#4b4b4b;stroke-width:13.5465"
         id="path1-9" /><path
         class="st0"
         d="m -705.86776,-492.31823 c 0,0 -27.715,-25.012 -36.846,-17.023 -0.15,0.152 -0.361,0.324 -0.533,0.496 -4.414,-4.203 -14.558,-14.113 -29.246,-29.877 -0.894,-0.975 -1.75,-1.897 -2.676,-2.916 -0.006,0.008 -0.014,0.016 -0.019,0.023 -0.037,-0.041 -0.07,-0.076 -0.11,-0.117 -4.508,6.143 -9.588,12.096 -15.199,17.707 -5.164,5.164 -10.64,9.82 -16.266,14.053 -0.453,0.326 -0.879,0.713 -1.334,1.029 0.006,0.006 0.01,0.01 0.018,0.016 -0.043,0.031 -0.084,0.068 -0.127,0.1 17.576,16.244 28.42,27.354 32.888,32.051 -0.172,0.17 -0.342,0.381 -0.514,0.551 -7.988,9.131 17.082,36.863 17.082,36.863 5.612,2.035 11.68,1.293 16.131,-2.131 3.824,-2.947 12.402,-10.994 18.033,-16.625 5.744,-5.742 13.734,-14.303 16.608,-18.088 3.403,-4.472 4.145,-10.499 2.11,-16.112 z"
         style="opacity:1;fill:#4b4b4b;stroke-width:13.5465"
         id="path2-4" /><path
         class="st0"
         d="m -823.04376,-596.70323 c -22.787,-27.619 -49.398,-61.875 -78.617,-103.074 -86.683,-122.133 -220.23804,-241.147 -220.82804,-241.658 -26.592,-23.131 -57.104,5.324 -68.611,16.832 -11.528,11.527 -39.967,42.017 -16.834,68.609 0.512,0.59 119.533,134.133 241.67404,220.812 41.201,29.215 75.461,55.824 103.08,78.611 7.801,-4.945 15.314,-10.898 22.276,-17.859 6.962,-6.962 12.915,-14.474 17.86,-22.273 z"
         style="opacity:1;fill:#4b4b4b;stroke-width:13.5465"
         id="path3-8" /></g><g
       style="opacity:1;stroke-width:12.1354"
       id="sankaku"
       transform="matrix(0.02180282,0,0,0.02180216,-11.163044,-10.581371)"
       inkscape:label="sankaku"><path
         class="st0"
         d="m 425.063,374.977 c 10.406,-11.891 19.406,-24.813 26.313,-38.781 10.969,-22.219 17.094,-46.797 17.094,-72.547 0,-17.969 -3.375,-35.266 -9.344,-51.484 -8.938,-24.328 -23.656,-46.25 -41.656,-65.078 -18,-18.813 -39.328,-34.563 -61.813,-46.484 l -0.078,-0.047 -0.109,-0.063 C 334.657,89.977 319.47,80.384 308.189,71.977 299.736,65.68 293.47,60.055 288.611,55.133 c -3.641,-3.672 -6.484,-6.953 -8.922,-9.891 -1.813,-2.203 -3.375,-4.219 -4.906,-6.109 -1.156,-1.422 -2.25,-2.781 -3.469,-4.109 -0.906,-1 -1.875,-1.984 -2.969,-2.953 -1.656,-1.422 -3.656,-2.844 -6.094,-3.859 -2.406,-1.031 -5.172,-1.547 -7.781,-1.547 -1.844,0 -3.75,0.25 -5.547,0.766 -1.703,0.484 -3.297,1.188 -4.703,2.016 -1.328,0.781 -2.484,1.641 -3.516,2.547 -1.922,1.656 -3.453,3.391 -4.938,5.156 -2.594,3.125 -5.109,6.5 -8.547,10.516 -2.578,2.984 -5.641,6.328 -9.5,10.047 -5.797,5.563 -13.406,11.984 -23.797,19.156 -10.406,7.172 -23.578,15.094 -40.469,23.625 l -0.078,0.047 -0.109,0.063 c -29.953,15.906 -57.891,38.578 -78.609,66.313 -10.359,13.875 -18.891,29.031 -24.859,45.25 -5.953,16.219 -9.328,33.5 -9.328,51.484 0,25.766 6.188,50.281 17.188,72.453 6.875,13.859 15.797,26.672 26.078,38.531 -17.109,7.078 -71.797,33.5 -83.734,85.562 111.563,57.078 216.563,-4.484 236.016,-30.313 2.422,-0.625 4.797,-1.297 7.172,-2.125 1.484,-0.516 2.969,-1.141 4.438,-1.734 9.656,3.5 19.563,5.719 29.5,6.953 C 299.297,459.57 402.5,517.852 512,461.836 499.156,405.805 436.781,379.461 425.063,374.977 Z m -355.219,73.796 -9.328,-9.219 c 18.141,-18.375 36.469,-29.984 52.672,-37.265 3.391,2.375 7.047,4.688 10.906,6.937 0.938,0.531 1.938,1.031 2.891,1.563 -16.641,6.219 -36.844,17.406 -57.141,37.984 z M 232,408.414 c -7.266,2.047 -15.172,3.016 -23.391,3.016 -16.844,0.016 -34.984,-4.109 -51.172,-10.406 -8.094,-3.125 -15.688,-6.813 -22.391,-10.688 -6.703,-3.891 -12.531,-7.984 -17.016,-11.906 -17.25,-15.016 -31.203,-32.656 -40.813,-52.031 -9.61,-19.375 -14.906,-40.484 -14.906,-62.75 0,-15.25 2.844,-29.922 7.984,-43.953 7.719,-21.016 20.672,-40.531 36.953,-57.516 16.219,-16.969 35.719,-31.375 56.188,-42.266 21.703,-10.984 37.938,-21.188 50.344,-30.422 9.313,-6.938 16.469,-13.328 22.063,-18.984 4.203,-4.25 7.531,-8.094 10.25,-11.375 2.016,-2.453 3.688,-4.609 5.078,-6.328 1.031,-1.281 1.906,-2.328 2.578,-3.078 0.328,-0.344 0.5,-0.516 0.719,-0.719 0.344,0.328 0.766,0.781 1.281,1.359 0.906,1.063 2.063,2.516 3.453,4.25 2.422,3.063 5.578,7.016 9.766,11.563 6.266,6.828 14.875,14.969 27.156,24.031 12.281,9.047 28.25,19.016 49.406,29.719 27.281,14.516 52.813,35.313 71.25,60.047 9.234,12.375 16.703,25.703 21.859,39.719 5.141,14.031 7.984,28.703 7.984,43.953 0,22.281 -5.25,43.484 -14.828,62.875 -9.578,19.406 -23.5,37 -40.828,51.844 -11.031,9.469 -25.734,18.078 -42.234,24.219 -16.5,6.14 -34.766,9.843 -52.938,9.828 -7.984,0 -15.922,-0.781 -23.734,-2.297 3.313,-3.156 6.516,-6.546 9.375,-10.421 6.547,-8.891 11.75,-19.625 15.328,-32.219 3.563,-12.625 5.547,-27.109 5.734,-43.688 0.016,-0.813 0.016,-1.641 0.016,-2.5 0,-10.703 -0.813,-24.484 -5.016,-39.016 -2.125,-7.266 -5.094,-14.719 -9.281,-22.016 -4.172,-7.281 -9.563,-14.391 -16.375,-20.922 l -15.094,15.781 c 5.25,5.016 9.313,10.391 12.531,16 4.797,8.391 7.672,17.313 9.313,25.969 1.656,8.656 2.094,17.031 2.094,24.203 0,0.766 0,1.516 -0.016,2.25 -0.203,17.781 -2.688,32.125 -6.672,43.531 -3,8.563 -6.813,15.469 -11.234,21.109 -3.297,4.203 -6.953,7.719 -10.906,10.641 -5.92,4.391 -12.577,7.532 -19.858,9.594 z m 191.219,29.406 c -13.281,-11.844 -28.969,-20.25 -42.594,-26.047 4.688,-2.609 9.219,-5.359 13.469,-8.312 12.406,5.937 25.813,13.89 37.844,24.578 z"
         style="opacity:1;fill:#4b4b4b;stroke-width:12.1354"
         id="path1-8" /></g><g
       style="opacity:1;stroke-width:13.5465"
       id="maru"
       transform="matrix(0.01953189,0,0,0.0195313,-10.581666,-10.000021)"
       inkscape:label="maru"><path
         class="st0"
         d="m 211.875,291.59 -8.506,-13.629 c -0.014,0.024 -0.025,0.043 -0.041,0.063 l -0.094,-0.149 c -9.273,14.539 -15.207,23.981 -15.207,23.981 -44.285,70.437 -97.008,194.101 -74.949,207.886 l 1.504,1.004 c 3.342,2.09 7.353,1.504 9.107,-1.336 l 112.549,-179.144 -4.26,-6.77 z"
         style="opacity:1;fill:#4b4b4b;stroke-width:13.5465"
         id="path1"
         transform="translate(5.8683377e-6)" /><path
         class="st0"
         d="m 437.191,10.833 c -37.35,-23.48 -89.822,-7.52 -116.978,35.594 -10.443,16.711 -15.625,35.008 -15.791,52.641 -0.168,12.367 -3.928,24.312 -10.445,34.676 -4.93,7.856 -11.281,17.797 -18.215,28.91 0.668,1.086 1.42,2.172 2.088,3.258 l 16.963,26.988 c 4.93,7.856 9.942,15.711 14.705,23.398 18.299,-21.808 44.451,-36.348 73.279,-38.437 27.572,-2.004 55.562,-18.465 72.943,-46.203 C 482.812,88.54 474.457,34.313 437.191,10.833 Z M 423.07,111.102 c -14.623,23.308 -42.279,32.332 -61.664,20.218 -19.301,-12.199 -23.144,-41.027 -8.523,-64.34 14.623,-23.308 42.363,-32.336 61.664,-20.219 4.832,3.039 8.696,7.117 11.549,11.883 0.025,0.039 0.047,0.086 0.072,0.129 1.381,2.324 2.516,4.813 3.412,7.426 0.037,0.106 0.068,0.219 0.106,0.324 4.485,13.443 2.532,30.075 -6.616,44.579 z"
         style="opacity:1;fill:#4b4b4b;stroke-width:13.5465"
         id="path2"
         transform="translate(5.8683377e-6)" /><path
         class="st0"
         d="m 213.094,262.082 0.668,1.004 -0.5,-1.172 c -0.001,0.086 -0.085,0.086 -0.168,0.168 z"
         style="opacity:1;fill:#4b4b4b;stroke-width:13.5465"
         id="path3"
         transform="translate(5.8683377e-6)" /><path
         class="st0"
         d="M 286.205,241.946 C 274.507,223.399 261.64,202.845 249.609,183.712 237.324,164.243 226.045,146.278 218.023,133.743 211.423,123.38 207.829,111.435 207.663,99.067 207.411,81.434 202.315,63.137 191.788,46.426 173.153,16.848 142.573,0.055 113.161,0.055 c -2.256,0 -4.428,0.082 -6.686,0.25 -11.029,1 -21.807,4.426 -31.584,10.527 -37.43,23.481 -45.703,77.708 -18.547,120.825 17.379,27.738 45.287,44.199 72.945,46.203 34.174,2.508 64.754,22.562 83.053,51.554 l 11.281,17.965 36.596,58.32 128.176,203.71 c 1.002,1.668 2.924,2.59 4.93,2.59 0.168,0 0.418,0 0.584,-0.086 1.254,-0.082 2.424,-0.5 3.51,-1.168 l 1.588,-1.004 c 22.058,-13.785 -30.748,-137.449 -75.033,-207.886 -0.002,10e-4 -16.797,-26.737 -37.769,-59.909 z M 150.594,131.321 c -4.846,3.008 -10.278,4.762 -15.791,5.262 -1.086,0.086 -2.256,0.168 -3.342,0.168 -15.709,0 -32.254,-9.36 -42.531,-25.648 -14.621,-23.313 -10.777,-52.141 8.523,-64.34 4.846,-3.008 10.278,-4.68 15.875,-5.18 1.086,-0.086 2.174,-0.168 3.344,-0.168 15.625,0 32.168,9.274 42.445,25.566 14.623,23.313 10.863,52.141 -8.523,64.34 z m 106.117,134.273 c -0.586,0.086 -1.17,0.086 -1.754,0.086 -10.112,0 -18.801,-7.773 -19.721,-18.133 -0.92,-10.863 7.104,-20.472 18.049,-21.476 0.584,0 1.17,-0.082 1.754,-0.082 10.195,0 18.8,7.77 19.718,18.133 1.004,10.859 -7.101,20.554 -18.046,21.472 z"
         style="opacity:1;fill:#4b4b4b;stroke-width:13.5465"
         id="path4"
         transform="translate(5.8683377e-6)" /></g></g><style
     type="text/css"
     id="style1">
	.st0{fill:#4B4B4B;}
</style><style
     type="text/css"
     id="style1-0">
	.st0{fill:#4B4B4B;}
</style><style
     type="text/css"
     id="style1-1">

	.st0{fill:#4B4B4B;}

</style></svg>
